<svg xmlns="http://www.w3.org/2000/svg" xmlns:xlink="http://www.w3.org/1999/xlink" width="1080" zoomAndPan="magnify" viewBox="0 0 810 374.999991" height="500" preserveAspectRatio="xMidYMid meet" version="1.0"><defs><clipPath id="c4028b4cd8"><path d="M 0 0 L 810 0 L 810 225 L 0 225 Z M 0 0 " clip-rule="nonzero"/></clipPath><clipPath id="517b5d381a"><path d="M 636.8125 785.035156 L -153.449219 123.660156 L 432.355469 -576.300781 L 1222.617188 85.074219 Z M 636.8125 785.035156 " clip-rule="nonzero"/></clipPath><clipPath id="a9fa2471c9"><path d="M 636.8125 785.035156 L -153.449219 123.660156 L 432.355469 -576.300781 L 1222.617188 85.074219 Z M 636.8125 785.035156 " clip-rule="nonzero"/></clipPath><clipPath id="79609253f6"><path d="M 0 0 L 810 0 L 810 275 L 0 275 Z M 0 0 " clip-rule="nonzero"/></clipPath><clipPath id="05fade5f40"><path d="M 64.824219 828.214844 L -612.609375 -195.726562 L 293.738281 -795.359375 L 971.171875 228.582031 Z M 64.824219 828.214844 " clip-rule="nonzero"/></clipPath><clipPath id="a7c2d2c0df"><path d="M 64.824219 828.214844 L -612.609375 -195.726562 L 293.738281 -795.359375 L 971.171875 228.582031 Z M 64.824219 828.214844 " clip-rule="nonzero"/></clipPath></defs><g clip-path="url(#c4028b4cd8)"><g clip-path="url(#517b5d381a)"><g clip-path="url(#a9fa2471c9)"><path fill="#9ab9ed" d="M 432.335938 -576.277344 L 1222.59375 85.101562 C 1061.332031 252.488281 962.222656 104.066406 840.320312 88.703125 C 717.28125 72.394531 657.9375 230.714844 489.695312 224.714844 C 321.632812 220.796875 267.183594 138.636719 190.300781 110.882812 C 113.417969 83.128906 34.800781 154.066406 -37.816406 162.621094 C -99.082031 169.117188 -153.429688 123.636719 -153.429688 123.636719 Z M 432.335938 -576.277344 " fill-opacity="1" fill-rule="nonzero"/></g></g></g><g clip-path="url(#79609253f6)"><g clip-path="url(#05fade5f40)"><g clip-path="url(#a7c2d2c0df)"><path fill="#688edc" d="M 293.707031 -795.339844 L 971.136719 228.601562 C 730.226562 364.789062 667.503906 161.632812 533.574219 102.605469 C 398.675781 42.109375 277.175781 202.636719 87.175781 138.527344 C -103.324219 76.851562 -137.574219 -35.46875 -215.90625 -93.316406 C -294.234375 -151.164062 -408.0625 -96.949219 -493.851562 -111.898438 C -565.992188 -125.332031 -612.578125 -195.746094 -612.578125 -195.746094 Z M 293.707031 -795.339844 " fill-opacity="1" fill-rule="nonzero"/></g></g></g></svg>